<svg width="32" height="32" viewBox="0 0 32 32" fill="none" xmlns="http://www.w3.org/2000/svg">
<rect x="0.5" y="0.500122" width="31" height="31" rx="6.16667" fill="white" stroke="url(#paint0_linear_2_5868)"/>
<g clip-path="url(#clip0_2_5868)">
<path fill-rule="evenodd" clip-rule="evenodd" d="M19.5781 8.97709C20.805 8.80844 21.8929 8.83185 22.1179 8.83819L22.1238 8.83835C22.6863 8.86085 23.137 9.31121 23.1595 9.8739L22.6599 9.89388L23.1594 9.87247C23.1693 10.1016 23.1939 11.1881 23.0253 12.4144C22.9409 13.0281 22.8064 13.6898 22.591 14.3023C22.3772 14.9106 22.0726 15.5023 21.6293 15.9454L19.4667 18.1074L19.1457 21.6417H19.1526L19.1087 22.1821C19.0744 22.6047 18.7982 22.9556 18.4097 23.0999C18.0116 23.2477 17.5706 23.1446 17.2777 22.8518L16.4103 21.9847L16.3589 22.0361C15.9506 22.4442 15.2952 22.4546 14.8744 22.0672L14.1234 21.5203C13.9002 21.3577 13.851 21.045 14.0136 20.8217C14.1761 20.5985 14.4889 20.5494 14.7121 20.7119L15.5214 21.3013L15.549 21.3289C15.5773 21.3573 15.6235 21.3573 15.6519 21.3289L16.4103 20.5707L17.9847 22.1446C18.0062 22.1661 18.0366 22.1717 18.0616 22.1624C18.0781 22.1563 18.0892 22.1477 18.0964 22.1394L18.5035 17.6563L20.9223 15.2382C21.2194 14.9412 21.4603 14.5034 21.6476 13.9706C21.8334 13.4421 21.9558 12.8511 22.0346 12.2782C22.1923 11.1314 22.1687 10.1091 22.1603 9.9153L22.1603 9.91387C22.1586 9.87287 22.1266 9.84014 22.0855 9.83767C21.8718 9.83175 20.8533 9.8112 19.7143 9.96777C19.1409 10.0466 18.5501 10.1686 18.022 10.3537C17.4897 10.5403 17.0532 10.78 16.7578 11.0753L14.3391 13.4933L9.89894 13.8968C9.88085 13.8983 9.85189 13.9127 9.83692 13.9493C9.83257 13.9621 9.8326 13.9728 9.83473 13.9822C9.83708 13.9926 9.84296 14.0052 9.85544 14.0177L11.4301 15.5918L10.6714 16.3503C10.6464 16.3752 10.6435 16.4139 10.6626 16.442L11.5902 17.1926C11.8048 17.3663 11.838 17.6811 11.6644 17.8958C11.4907 18.1105 11.1758 18.1437 10.9611 17.97L9.98296 17.1785L9.96439 17.1599C9.54543 16.7411 9.54543 16.0619 9.96439 15.643L10.0156 15.5918L9.14844 14.7249C8.85733 14.4338 8.75149 13.9994 8.90028 13.5989L8.90194 13.5944C9.0441 13.2227 9.38785 12.9361 9.81534 12.9003L13.8881 12.5302L16.0508 10.3681C16.4928 9.92622 17.0837 9.62289 17.6913 9.40995C18.3031 9.19548 18.9645 9.06143 19.5781 8.97709Z" fill="black"/>
<path fill-rule="evenodd" clip-rule="evenodd" d="M18.3333 14.6668C18.8856 14.6668 19.3333 14.2191 19.3333 13.6668C19.3333 13.1145 18.8856 12.6668 18.3333 12.6668C17.7811 12.6668 17.3333 13.1145 17.3333 13.6668C17.3333 14.2191 17.7811 14.6668 18.3333 14.6668Z" fill="black"/>
<path fill-rule="evenodd" clip-rule="evenodd" d="M11.1358 18.8337C12.2556 18.8167 13.1836 19.744 13.1664 20.8645C13.1598 21.2811 13.0242 21.7389 12.6357 22.1285L12.6351 22.1291C11.9944 22.7695 11.1348 23.0134 10.4876 23.1075C10.1574 23.1555 9.86464 23.1671 9.6539 23.1668C9.54815 23.1666 9.46205 23.1634 9.40099 23.1601C9.37043 23.1585 9.34607 23.1569 9.32857 23.1555L9.30752 23.1538L9.301 23.1533L9.29877 23.1531L9.29791 23.153C9.29774 23.153 9.29722 23.1529 9.34497 22.6552C8.84727 22.7031 8.84725 22.7029 8.84724 22.7027L8.84712 22.7015L8.84691 22.6993L8.84634 22.6928L8.84464 22.6717C8.84331 22.6542 8.84165 22.6298 8.84001 22.5993C8.83673 22.5382 8.83354 22.4521 8.83334 22.3464C8.83296 22.1357 8.84449 21.8429 8.89248 21.5127C8.98654 20.8655 9.23055 20.0059 9.87127 19.3653C10.2603 18.9763 10.7183 18.8399 11.1358 18.8337ZM9.34497 22.6552L8.84724 22.7027C8.87016 22.9411 9.05887 23.13 9.29722 23.1529L9.34497 22.6552ZM9.83653 22.1636C9.98328 22.1582 10.1567 22.1451 10.3438 22.1179C10.8997 22.0371 11.5083 21.8413 11.9278 21.4221C12.1036 21.2457 12.1633 21.0512 12.1666 20.8489M9.83653 22.1636C9.84189 22.0168 9.85491 21.8435 9.88209 21.6565C9.96288 21.1006 10.1588 20.4919 10.5783 20.0724C10.7545 19.8963 10.9489 19.8365 11.1505 19.8336C11.7064 19.825 12.1749 20.2929 12.1666 20.8489" fill="black"/>
</g>
<defs>
<linearGradient id="paint0_linear_2_5868" x1="0.800001" y1="0.77682" x2="29.7533" y2="33.6288" gradientUnits="userSpaceOnUse">
<stop offset="0.0500911" stop-color="#E9EEF7"/>
<stop offset="0.359305" stop-color="#F26E7E"/>
<stop offset="0.651214" stop-color="#F7BF2A"/>
<stop offset="0.895119" stop-color="#E9EEF7"/>
</linearGradient>
<clipPath id="clip0_2_5868">
<rect width="16" height="16" fill="white" transform="translate(8 8.00012)"/>
</clipPath>
</defs>
</svg>
