<svg width="32" height="32" viewBox="0 0 32 32" fill="none" xmlns="http://www.w3.org/2000/svg">
<rect x="0.5" y="0.500122" width="31" height="31" rx="6.16667" fill="white" stroke="url(#paint0_linear_2_5668)"/>
<g clip-path="url(#clip0_2_5668)">
<path fill-rule="evenodd" clip-rule="evenodd" d="M15.1566 10.0335C15.2118 10.3041 15.0372 10.5682 14.7666 10.6234C11.9541 11.197 9.83334 13.6832 9.83334 16.6668C9.83334 20.0707 12.5961 22.8335 16 22.8335C18.9836 22.8335 21.4698 20.7127 22.0434 17.9002C22.0986 17.6296 22.3627 17.455 22.6333 17.5102C22.9038 17.5654 23.0784 17.8295 23.0233 18.1C22.3569 21.3675 19.4697 23.8335 16 23.8335C12.0439 23.8335 8.83334 20.6229 8.83334 16.6668C8.83334 13.1971 11.2992 10.3099 14.5668 9.64355C14.8373 9.58836 15.1014 9.76297 15.1566 10.0335Z" fill="black"/>
<path fill-rule="evenodd" clip-rule="evenodd" d="M16.8333 8.66681C16.8333 8.39067 17.0572 8.16681 17.3333 8.16681C21.2895 8.16681 24.5 11.3773 24.5 15.3335C24.5 15.6096 24.2761 15.8335 24 15.8335H17.3333C17.0572 15.8335 16.8333 15.6096 16.8333 15.3335V8.66681ZM17.8333 9.18682V14.8335H23.48C23.2385 11.8281 20.8387 9.42836 17.8333 9.18682Z" fill="black"/>
</g>
<defs>
<linearGradient id="paint0_linear_2_5668" x1="0.800001" y1="0.77682" x2="29.7533" y2="33.6288" gradientUnits="userSpaceOnUse">
<stop offset="0.0500911" stop-color="#E9EEF7"/>
<stop offset="0.359305" stop-color="#1EA4D7"/>
<stop offset="0.651214" stop-color="#FFD21E"/>
<stop offset="0.895119" stop-color="#E9EEF7"/>
</linearGradient>
<clipPath id="clip0_2_5668">
<rect width="16" height="16" fill="white" transform="translate(8.66666 8.00012)"/>
</clipPath>
</defs>
</svg>
