<svg width="32" height="32" viewBox="0 0 32 32" fill="none" xmlns="http://www.w3.org/2000/svg">
<rect x="0.5" y="0.500122" width="31" height="31" rx="6.16667" fill="white" stroke="url(#paint0_linear_2_5849)"/>
<path d="M13.4959 14.6089L16.0423 13.1388L18.5886 14.6089V17.5492L16.0423 19.0193L13.4959 17.5492V14.6089Z" stroke="black" stroke-width="0.91666"/>
<path fill-rule="evenodd" clip-rule="evenodd" d="M18.333 9.53798C18.5485 9.67065 18.6158 9.95296 18.4831 10.1685C18.3504 10.3841 18.0681 10.4513 17.8525 10.3187L16.5003 9.48654V10.7171C16.5003 10.9703 16.2951 11.1755 16.042 11.1755C15.7889 11.1755 15.5837 10.9703 15.5837 10.7171V9.52347L14.4044 10.3097C14.1938 10.4501 13.9092 10.3932 13.7688 10.1826C13.6284 9.97194 13.6853 9.68738 13.8959 9.54697L16.0327 8.12244L18.333 9.53798ZM11.5463 12.0562C11.7633 11.926 11.8337 11.6445 11.7035 11.4274C11.5733 11.2104 11.2917 11.14 11.0747 11.2702L9.5047 12.2122C9.49957 12.2151 9.4945 12.2182 9.48948 12.2213L9.27509 12.35V12.594C9.27476 12.6041 9.27476 12.6142 9.27509 12.6243V14.6596C9.27509 14.9128 9.48029 15.118 9.73342 15.118C9.98655 15.118 10.1918 14.9128 10.1918 14.6596V13.377L11.3285 13.9891C11.5514 14.1091 11.8294 14.0257 11.9494 13.8028C12.0694 13.58 11.986 13.302 11.7631 13.182L10.66 12.588L11.5463 12.0562ZM20.2992 11.4274C20.1689 11.6445 20.2393 11.926 20.4564 12.0562L21.3426 12.588L20.2395 13.182C20.0167 13.302 19.9333 13.58 20.0533 13.8028C20.1733 14.0257 20.4512 14.1091 20.6741 13.9891L21.8109 13.377V14.6596C21.8109 14.9128 22.0161 15.118 22.2692 15.118C22.5224 15.118 22.7276 14.9128 22.7276 14.6596V12.6243C22.7279 12.6142 22.7279 12.6041 22.7276 12.594V12.35L22.5132 12.2213C22.5082 12.2182 22.5031 12.2151 22.498 12.2122L20.928 11.2702C20.7109 11.14 20.4294 11.2104 20.2992 11.4274ZM11.7035 20.5729C11.8337 20.3558 11.7633 20.0743 11.5463 19.9441L10.6599 19.4123L11.7631 18.8182C11.986 18.6982 12.0694 18.4203 11.9494 18.1974C11.8294 17.9745 11.5514 17.8911 11.3285 18.0112L10.1918 18.6233V17.3407C10.1918 17.0876 9.98655 16.8824 9.73342 16.8824C9.48029 16.8824 9.27509 17.0876 9.27509 17.3407V19.376C9.27476 19.386 9.27476 19.3961 9.27509 19.4062V19.6504L9.4937 19.7815L9.5004 19.7856L11.0747 20.7301C11.2917 20.8603 11.5733 20.79 11.7035 20.5729ZM16.5003 21.2832C16.5003 21.0301 16.2951 20.8249 16.042 20.8249C15.7889 20.8249 15.5837 21.0301 15.5837 21.2832V22.4766L14.4044 21.6904C14.1938 21.55 13.9092 21.6069 13.7688 21.8175C13.6284 22.0281 13.6853 22.3127 13.8959 22.4531L16.0327 23.8776L18.333 22.4621C18.5485 22.3294 18.6158 22.0471 18.4831 21.8315C18.3504 21.616 18.0681 21.5488 17.8525 21.6814L16.5003 22.5135V21.2832ZM20.4577 19.9441C20.2406 20.0743 20.1702 20.3558 20.3005 20.5729C20.4307 20.79 20.7122 20.8603 20.9293 20.7301L22.7289 19.6504V17.3407C22.7289 17.0876 22.5237 16.8824 22.2705 16.8824C22.0174 16.8824 21.8122 17.0876 21.8122 17.3407V18.6236L20.6748 18.0112C20.4519 17.8911 20.1739 17.9745 20.0539 18.1974C19.9339 18.4203 20.0173 18.6982 20.2402 18.8182L21.3437 19.4125L20.4577 19.9441Z" fill="black"/>
<defs>
<linearGradient id="paint0_linear_2_5849" x1="0.800001" y1="0.77682" x2="29.7533" y2="33.6288" gradientUnits="userSpaceOnUse">
<stop offset="0.0500911" stop-color="#E9EEF7"/>
<stop offset="0.359305" stop-color="#F26E7E"/>
<stop offset="0.651214" stop-color="#F7BF2A"/>
<stop offset="0.895119" stop-color="#E9EEF7"/>
</linearGradient>
</defs>
</svg>
