<svg width="32" height="32" viewBox="0 0 32 32" fill="none" xmlns="http://www.w3.org/2000/svg">
<rect x="0.5" y="0.500122" width="31" height="31" rx="6.16667" fill="white" stroke="url(#paint0_linear_2_5513)"/>
<path fill-rule="evenodd" clip-rule="evenodd" d="M10.8477 14.9456C11.046 12.2733 13.277 10.1668 16 10.1668C18.723 10.1668 20.954 12.2733 21.1523 14.9456C22.6856 15.3136 23.8333 16.6804 23.8333 18.3335C23.8333 20.2663 22.2661 21.8335 20.3333 21.8335H11.6667C9.73386 21.8335 8.16666 20.2663 8.16666 18.3335C8.16666 16.6804 9.31442 15.3136 10.8477 14.9456ZM11.8333 15.3211C11.8337 15.3252 11.8341 15.3309 11.8345 15.3374C11.8501 15.6029 11.6551 15.8342 11.3908 15.8637C10.1381 16.0036 9.16666 17.0519 9.16666 18.3335C9.16666 19.714 10.2861 20.8335 11.6667 20.8335H20.3333C21.7139 20.8335 22.8333 19.714 22.8333 18.3335C22.8333 17.0519 21.8619 16.0036 20.6092 15.8637C20.3449 15.8342 20.1499 15.6029 20.1655 15.3374C20.1659 15.3309 20.1663 15.3252 20.1666 15.3212C20.16 13.0256 18.2971 11.1668 16 11.1668C13.7029 11.1668 11.84 13.0256 11.8333 15.3211ZM20.1673 15.3124L20.1673 15.3124L20.1673 15.3124Z" fill="black"/>
<path fill-rule="evenodd" clip-rule="evenodd" d="M14.6667 17.5001C14.9428 17.5001 15.1667 17.724 15.1667 18.0001V18.0068C15.1667 18.2829 14.9428 18.5068 14.6667 18.5068C14.3905 18.5068 14.1667 18.2829 14.1667 18.0068V18.0001C14.1667 17.724 14.3905 17.5001 14.6667 17.5001Z" fill="black"/>
<path fill-rule="evenodd" clip-rule="evenodd" d="M12 17.5001C12.2762 17.5001 12.5 17.724 12.5 18.0001V18.0068C12.5 18.2829 12.2762 18.5068 12 18.5068C11.7239 18.5068 11.5 18.2829 11.5 18.0068V18.0001C11.5 17.724 11.7239 17.5001 12 17.5001Z" fill="black"/>
<defs>
<linearGradient id="paint0_linear_2_5513" x1="0.800001" y1="0.77682" x2="29.7533" y2="33.6288" gradientUnits="userSpaceOnUse">
<stop offset="0.0500911" stop-color="#E9EEF7"/>
<stop offset="0.359305" stop-color="#5F43E9"/>
<stop offset="0.651214" stop-color="#1EBCFF"/>
<stop offset="0.895119" stop-color="#E9EEF7"/>
</linearGradient>
</defs>
</svg>
