<?xml version="1.0" encoding="UTF-8"?>
<svg width="16px" height="16px" viewBox="0 0 16 16" version="1.1" xmlns="http://www.w3.org/2000/svg" xmlns:xlink="http://www.w3.org/1999/xlink">
    <!-- Generator: Sketch 44.1 (41455) - http://www.bohemiancoding.com/sketch -->
    <title>icn-stardust</title>
    <desc>Created with Sketch.</desc>
    <defs></defs>
    <g id="Page-1" stroke="none" stroke-width="1" fill="none" fill-rule="evenodd">
        <g id="analytics--05-configuration-cache-detail" transform="translate(-1359.000000, -1279.000000)" fill="#000000">
            <g id="footer" transform="translate(0.000000, 1252.000000)">
                <g id="right" transform="translate(1264.000000, 25.000000)">
                    <path d="M105,5 C107,5 108,4 108,2 C108,4 109,5 111,5 C109,5 108,6 108,8 C108,6 107,5 105,5 Z M107,16 C108.333333,16 109,15.3333333 109,14 C109,15.3333333 109.666667,16 111,16 C109.666667,16 109,16.6666667 109,18 C109,16.6666667 108.333333,16 107,16 Z M95,11 C98.3333333,11 100,9.33333333 100,6 C100,9.33333333 101.666667,11 105,11 C101.666667,11 100,12.6666667 100,16 C100,12.6666667 98.3333333,11 95,11 Z" id="icn-stardust"></path>
                </g>
            </g>
        </g>
    </g>
</svg>
