<svg width="32" height="32" viewBox="0 0 32 32" fill="none" xmlns="http://www.w3.org/2000/svg">
<rect x="0.5" y="0.500122" width="31" height="31" rx="6.16667" fill="white" stroke="url(#paint0_linear_2_5600)"/>
<g clip-path="url(#clip0_2_5600)">
<path fill-rule="evenodd" clip-rule="evenodd" d="M23.3362 20.7119C23.4291 20.972 23.2936 21.2581 23.0336 21.351L16.1669 23.8043C16.0581 23.8432 15.9392 23.8432 15.8304 23.8043L8.96378 21.351C8.70373 21.2581 8.56824 20.972 8.66115 20.7119C8.75406 20.4519 9.04019 20.3164 9.30023 20.4093L15.9987 22.8025L22.6971 20.4093C22.9572 20.3164 23.2433 20.4519 23.3362 20.7119Z" fill="black"/>
<path fill-rule="evenodd" clip-rule="evenodd" d="M15.8029 8.20676C15.928 8.15349 16.0694 8.15349 16.1945 8.20676L23.1036 11.1478C24.1046 11.58 24.0635 13.0048 23.0329 13.3713L16.1657 15.8048C16.0576 15.843 15.9397 15.843 15.8317 15.8048L8.96501 13.3714C7.94066 13.0072 7.88538 11.5728 8.8971 11.1464C8.89747 11.1462 8.89785 11.1461 8.89823 11.1459L15.8029 8.20676ZM15.9987 9.21022L9.28582 12.0677C9.1254 12.1352 9.12426 12.3666 9.29942 12.429C9.29939 12.429 9.29945 12.429 9.29942 12.429L15.9987 14.803L22.6978 12.429C22.6978 12.4291 22.6979 12.429 22.6978 12.429C22.8667 12.3688 22.8793 12.141 22.708 12.0662C22.7077 12.0661 22.7074 12.066 22.7071 12.0658L15.9987 9.21022Z" fill="black"/>
<path fill-rule="evenodd" clip-rule="evenodd" d="M8.66058 16.7402C8.75259 16.4798 9.03824 16.3434 9.2986 16.4354L15.9987 18.8032L22.6987 16.4354C22.9591 16.3434 23.2448 16.4798 23.3368 16.7402C23.4288 17.0006 23.2923 17.2862 23.0319 17.3782L16.1653 19.8049C16.0575 19.843 15.9399 19.843 15.8321 19.8049L8.9654 17.3782C8.70504 17.2862 8.56856 17.0006 8.66058 16.7402Z" fill="black"/>
</g>
<defs>
<linearGradient id="paint0_linear_2_5600" x1="0.800001" y1="0.77682" x2="29.7533" y2="33.6288" gradientUnits="userSpaceOnUse">
<stop offset="0.0500911" stop-color="#E9EEF7"/>
<stop offset="0.359305" stop-color="#FF6F81"/>
<stop offset="0.651214" stop-color="#917BF9"/>
<stop offset="0.895119" stop-color="#E9EEF7"/>
</linearGradient>
<clipPath id="clip0_2_5600">
<rect width="16" height="16" fill="white" transform="translate(8 8.00012)"/>
</clipPath>
</defs>
</svg>
