<svg width="61" height="23" viewBox="0 0 61 23" fill="none" xmlns="http://www.w3.org/2000/svg">
<path fill-rule="evenodd" clip-rule="evenodd" d="M51.2771 14.9626H56.3239V7.35902H51.2771V14.9626ZM56.2961 4.37194H60.1718V18.4927C60.1718 20.8282 59.9209 21.2355 59.2796 21.86C58.7777 22.3759 57.9691 22.6203 56.575 22.6203H50.9146L49.158 20.7195V19.932H56.2961V18.0039H51.4165C49.9387 18.0039 49.1859 17.7324 48.5725 17.135C47.7639 16.3204 47.4293 14.5552 47.4293 11.2151C47.4293 7.87504 47.8196 6.02843 48.6561 5.18661C49.2974 4.58919 50.0781 4.34479 51.4723 4.34479L54.3721 4.37194L56.2961 6.08274V4.37194ZM10.5677 0.62439H15.1406L8.56013 8.771L15.4194 17.9767H10.5677L5.35357 10.7533H4.12671V17.9767H0V0.62439H4.12671V7.35893H5.35357L10.5677 0.62439ZM40.6815 8.66249V7.41335H39.2874C39.2595 7.41335 39.2595 7.41335 39.2316 7.41335H38.1442C38.1163 7.41335 38.1163 7.41335 38.0884 7.41335H35.9414V8.66249V17.9225H32.0935V4.37194H34.6309H35.9414V4.61634V6.08274L37.8653 4.37194H38.9807C39.1479 4.34479 39.3431 4.34479 39.5383 4.34479H41.2114C42.3824 4.34479 43.1353 4.58919 43.665 5.10514C44.2506 5.64825 44.4737 6.35429 44.4737 8.36375V17.9225H40.6257V8.82542C40.6815 8.77108 40.6815 8.71683 40.6815 8.66249ZM20.4106 14.9348H25.4574V7.33133H20.4106V14.9348ZM20.5779 17.9225C19.1838 17.9225 18.4309 17.7052 17.8453 17.0807C16.9531 16.1846 16.5906 14.9626 16.5906 11.1336C16.5906 7.27757 16.9531 6.08273 17.8453 5.15946C18.4309 4.56204 19.1838 4.34479 20.5779 4.34479H25.2622C26.6564 4.34479 27.4092 4.56204 27.9948 5.15946C28.887 6.08273 29.2496 7.27757 29.2496 11.1336C29.2496 14.9897 28.887 16.1846 27.9948 17.0807C27.3814 17.7052 26.6564 17.9225 25.2622 17.9225H20.5779Z" fill="#35363A"/>
</svg>
