<svg fill="none" height="29" viewBox="0 0 179 29" width="179" xmlns="http://www.w3.org/2000/svg"><g clip-rule="evenodd" fill-rule="evenodd"><path d="m10.0898 24.8126.7645-1.0179h5.6566l2.9484 3.8865-.5241 1.3186h-7.2947l.1747-1.3186z" fill="#169fcc"/><path d="m11.8184 11.5607 2.7313-4.86841h3.1828l14.2663 17.09641-1.1061 5.2113h-6.1173l.3837-1.4628z" fill="#14b59a"/><path d="m15.1367 5.76731 1.3079-2.49524 3.9235-3.27207 6.7227 5.43775-.8719.91807 1.1702 1.67134v1.78904l-3.3499 2.8248-5.6214-6.87369z" fill="#1bc263"/><path d="m4.74613 16.6399h1.77698l4.63369-3.9988 6.1407 7.3615-1.732 2.681h-5.66836l-3.91387 5.1349-.89974 1.1815h-5.08353v-6.2936z" fill="#16bdcc"/><path d="m55.4164 7.17041h4.0774l-5.8572 7.41149 6.105 8.3576h-4.3252l-4.6433-6.5668-1.1012-.0051v6.5719h-3.6719v-15.76909h3.6719v6.11259h1.0997zm26.8483 7.43659c0-.0461-.0007-.0904-.0021-.1329h.0009v-1.1434h-1.2432l-.0544-.0001h-.9631l-.0378.0001h-1.9112v1.1434h.0006v8.419h-3.4262v-12.3171h2.2563v-.0007h1.157v.2216 1.336l1.7265-1.5576h1.0017c.1579-.0158.3253-.0216.5096-.0216h1.5005c1.0526 0 1.7244.2238 2.1947.6942.515.4927.7166 1.1421.7166 2.9561v8.6891h-3.4264zm-20.3734 7.5246c.5374.5599 1.1869.7615 2.441.7615h4.1878c1.254 0 1.9035-.2016 2.4409-.7615.8062-.8061 1.1198-1.9036 1.1198-5.3971s-.3136-4.5909-1.1198-5.4195c-.5374-.5375-1.1869-.7391-2.4409-.7391h-4.1878c-1.2541 0-1.926.2016-2.441.7391-.8063.8286-1.1198 1.926-1.1198 5.4195 0 3.4711.3135 4.591 1.1198 5.3971zm6.7857-1.9508h-4.5015v-6.8976h4.5015zm27.5215-8.0479v-1.5576l3.4481.0007v12.83c0 2.1275-.224 2.4879-.7838 3.0702-.4479.4703-1.1645.6943-2.4187.6943l-5.0529-.0106-1.5574-1.7264-.0048-.7261h6.3695l-.0062-1.7563-4.3446-.0028c-1.3213 0-1.9876-.2466-2.5475-.7841-.7166-.7391-1.0077-2.3564-1.0077-5.3797 0-3.0457.3583-4.708 1.0972-5.4694.5599-.5375 1.2766-.7614 2.5083-.7614l2.5739.0216zm-4.4799 8.0525h4.5014v-6.9021h-4.5014zm34.1664-1.1854h2.262l-2.821-8.541c-.169-.48101-.273-.59801-.741-.59801h-1.755c-.481 0-.572.104-.741.59801l-2.821 8.541h2.119l.676-2.262h3.133zm-2.34-7.228h.169l1.014 3.38h-2.197zm-6.417-1.87201h-2.834c-.39 0-.507.11701-.611.49401l-1.508 5.434h-.156l-1.56-5.434c-.104-.377-.234-.49401-.611-.49401h-2.873v9.10001h1.989v-6.695h.156l1.885 6.227c.104.364.195.468.546.468h.936c.338 0 .429-.104.546-.468l1.872-6.162h.169v6.63h2.054zm19.065 0h2.028v9.10001h-1.716c-.481 0-.702-.13-.936-.546l-3.133-5.616h-.13v6.162h-2.028v-9.10001h1.989c.494 0 .702.11701.936.54601l2.86 5.187h.13zm10.773 9.10001h2.262l-2.821-8.541c-.169-.48101-.273-.59801-.741-.59801h-1.755c-.481 0-.572.104-.741.59801l-2.821 8.541h2.119l.676-2.262h3.133zm-2.34-7.228h.169l1.014 3.38h-2.197zm7.306-1.43c.325-.312.741-.44201 1.638-.44201h2.795c.923 0 1.352.10401 1.677.41601.481.442.715.988.741 2.574h-2.041c-.026-.91-.169-1.092-.286-1.196-.078-.078-.195-.13-.611-.13h-1.703c-.429 0-.533.039-.624.13-.13.117-.312.52-.312 2.756 0 2.223.182 2.639.312 2.769.091.078.195.117.624.117h1.742c.403.013.52-.039.611-.117.117-.117.299-.468.299-1.339v-.26h-2.041v-1.56h4.108v1.131c0 2.093-.338 2.873-.845 3.354-.338.325-.806.455-1.651.455h-2.795c-.897 0-1.313-.13-1.638-.442-.52-.494-.897-1.326-.897-4.108 0-2.795.377-3.627.897-4.108zm16.405 6.981h-4.706v-2.197h3.666v-1.599h-3.666v-1.95h4.706v-1.67701h-6.825v9.10001h6.825zm4.698-5.772v2.431h2.262c.442 0 .572-.052.65-.117.13-.13.247-.377.247-1.118 0-.728-.117-.975-.247-1.092-.078-.065-.208-.104-.65-.104zm3.263 7.449c-.091-.611-.143-1.352-.169-2.262-.013-.702-.104-.858-.26-1.001-.156-.13-.338-.182-.884-.182h-1.95v3.445h-2.119v-9.10001h5.356c.754 0 1.222.10401 1.534.41601.377.377.585.858.585 2.171 0 1.638-.468 2.119-1.521 2.301v.026c.936.195 1.391.455 1.43 1.781.039 1.079.091 1.911.143 2.405z" fill="#fff"/></g></svg>