<svg width="213" height="25" viewBox="0 0 213 25" fill="none" xmlns="http://www.w3.org/2000/svg">
<path d="M8.95038 20.0391L8.27686 20.8977L9.80067 23.2893L9.64181 24.3954H16.1063L16.5538 23.2893L13.9537 20.0391H8.95038Z" fill="url(#paint0_linear_272_6668)"/>
<path d="M12.3804 5.66531L10.0195 9.73719L21.5346 23.164L21.207 24.3951H26.4891L27.4447 20.027L15.1231 5.66309L12.3804 5.66531Z" fill="url(#paint1_linear_272_6668)"/>
<path d="M14.1968 2.71299L13.0688 4.7765H15.867L20.6691 10.4551L23.5239 8.12547V6.64606L22.5323 5.26138L23.2652 4.50363L17.5373 0L14.1968 2.71299Z" fill="url(#paint2_linear_272_6668)"/>
<path d="M5.42531 13.87H3.93248L0 19.0395V24.3952H4.21848L4.9638 23.3922L8.21812 19.0282H12.9263L14.3758 16.7284L9.27111 10.4551L5.42531 13.87Z" fill="url(#paint3_linear_272_6668)"/>
<g clip-path="url(#clip0_272_6668)">
<path d="M97.3483 5.59277H99.9548L103.793 16.385L107.631 5.59277H110.238L104.84 20.292H102.746L97.3483 5.59277ZM95.9424 5.59277H98.5389L99.0107 16.1124V20.292H95.9424V5.59277ZM109.047 5.59277H111.654V20.292H108.576V16.1124L109.047 5.59277Z" fill="url(#paint4_linear_272_6668)"/>
<path d="M120.162 17.8291V12.9629C120.162 12.613 120.103 12.3135 119.987 12.0644C119.871 11.8087 119.689 11.6101 119.443 11.4688C119.204 11.3274 118.892 11.2568 118.509 11.2568C118.181 11.2568 117.897 11.314 117.658 11.4284C117.418 11.5361 117.233 11.6943 117.103 11.9029C116.974 12.1048 116.908 12.3438 116.908 12.6197H113.953C113.953 12.1553 114.062 11.7144 114.281 11.2972C114.5 10.8799 114.818 10.5131 115.235 10.1968C115.653 9.87368 116.149 9.62128 116.724 9.43959C117.305 9.25785 117.955 9.16699 118.674 9.16699C119.535 9.16699 120.302 9.30833 120.972 9.59099C121.643 9.87368 122.17 10.2977 122.553 10.8631C122.943 11.4284 123.137 12.1351 123.137 12.9831V17.6574C123.137 18.2564 123.175 18.7478 123.25 19.1314C123.326 19.5083 123.435 19.8381 123.579 20.1208V20.2924H120.592C120.449 19.9963 120.339 19.6261 120.264 19.1819C120.196 18.7309 120.162 18.28 120.162 17.8291ZM120.551 13.6394L120.572 15.285H118.92C118.53 15.285 118.191 15.3287 117.904 15.4162C117.617 15.5037 117.38 15.6282 117.196 15.7897C117.011 15.9445 116.874 16.1263 116.785 16.3349C116.703 16.5435 116.662 16.7724 116.662 17.0214C116.662 17.2704 116.72 17.4959 116.836 17.6978C116.953 17.893 117.121 18.0478 117.339 18.1622C117.558 18.2699 117.815 18.3237 118.109 18.3237C118.554 18.3237 118.94 18.2363 119.269 18.0613C119.597 17.8862 119.85 17.6709 120.028 17.4151C120.213 17.1594 120.309 16.9171 120.316 16.6882L121.095 17.9199C120.986 18.1959 120.835 18.4819 120.644 18.7781C120.459 19.0742 120.223 19.3535 119.936 19.616C119.648 19.8717 119.303 20.0838 118.899 20.252C118.496 20.4135 118.017 20.4943 117.463 20.4943C116.758 20.4943 116.118 20.3563 115.543 20.0804C114.976 19.7977 114.524 19.4107 114.189 18.9194C113.86 18.4213 113.696 17.856 113.696 17.2233C113.696 16.6512 113.806 16.1431 114.025 15.6989C114.243 15.2547 114.565 14.8811 114.989 14.5783C115.42 14.2686 115.957 14.0365 116.6 13.8816C117.243 13.7201 117.989 13.6394 118.838 13.6394H120.551Z" fill="url(#paint5_linear_272_6668)"/>
<path d="M128.309 11.701V20.2924H125.354V9.36892H128.125L128.309 11.701ZM127.879 14.447H127.078C127.078 13.6394 127.184 12.9125 127.396 12.2663C127.608 11.6135 127.906 11.0582 128.289 10.6006C128.672 10.1362 129.127 9.78282 129.654 9.54051C130.188 9.2915 130.783 9.16699 131.44 9.16699C131.959 9.16699 132.435 9.24103 132.866 9.38911C133.297 9.53716 133.666 9.77272 133.974 10.0958C134.289 10.4188 134.529 10.8462 134.693 11.3779C134.864 11.9096 134.95 12.5591 134.95 13.3264V20.2924H131.973V13.3163C131.973 12.8317 131.905 12.4548 131.768 12.1856C131.631 11.9164 131.429 11.7279 131.162 11.6202C130.903 11.5058 130.581 11.4486 130.198 11.4486C129.801 11.4486 129.456 11.526 129.161 11.6808C128.874 11.8356 128.635 12.051 128.443 12.3269C128.258 12.5962 128.118 12.9125 128.022 13.2759C127.926 13.6394 127.879 14.0297 127.879 14.447Z" fill="url(#paint6_linear_272_6668)"/>
<path d="M143.19 17.8291V12.9629C143.19 12.613 143.132 12.3135 143.016 12.0644C142.899 11.8087 142.718 11.6101 142.472 11.4688C142.233 11.3274 141.921 11.2568 141.538 11.2568C141.21 11.2568 140.926 11.314 140.686 11.4284C140.447 11.5361 140.262 11.6943 140.132 11.9029C140.002 12.1048 139.937 12.3438 139.937 12.6197H136.982C136.982 12.1553 137.091 11.7144 137.31 11.2972C137.529 10.8799 137.847 10.5131 138.264 10.1968C138.682 9.87368 139.178 9.62128 139.752 9.43959C140.334 9.25785 140.984 9.16699 141.702 9.16699C142.564 9.16699 143.331 9.30833 144.001 9.59099C144.672 9.87368 145.198 10.2977 145.582 10.8631C145.972 11.4284 146.166 12.1351 146.166 12.9831V17.6574C146.166 18.2564 146.204 18.7478 146.279 19.1314C146.354 19.5083 146.464 19.8381 146.608 20.1208V20.2924H143.621C143.478 19.9963 143.368 19.6261 143.293 19.1819C143.225 18.7309 143.19 18.28 143.19 17.8291ZM143.58 13.6394L143.601 15.285H141.948C141.559 15.285 141.22 15.3287 140.933 15.4162C140.645 15.5037 140.409 15.6282 140.225 15.7897C140.04 15.9445 139.903 16.1263 139.814 16.3349C139.732 16.5435 139.691 16.7724 139.691 17.0214C139.691 17.2704 139.749 17.4959 139.865 17.6978C139.982 17.893 140.149 18.0478 140.368 18.1622C140.587 18.2699 140.843 18.3237 141.138 18.3237C141.583 18.3237 141.969 18.2363 142.297 18.0613C142.626 17.8862 142.879 17.6709 143.057 17.4151C143.242 17.1594 143.337 16.9171 143.344 16.6882L144.124 17.9199C144.015 18.1959 143.864 18.4819 143.673 18.7781C143.488 19.0742 143.252 19.3535 142.965 19.616C142.677 19.8717 142.332 20.0838 141.928 20.252C141.525 20.4135 141.045 20.4943 140.491 20.4943C139.787 20.4943 139.147 20.3563 138.572 20.0804C138.004 19.7977 137.553 19.4107 137.218 18.9194C136.889 18.4213 136.725 17.856 136.725 17.2233C136.725 16.6512 136.835 16.1431 137.053 15.6989C137.272 15.2547 137.594 14.8811 138.018 14.5783C138.449 14.2686 138.986 14.0365 139.629 13.8816C140.272 13.7201 141.018 13.6394 141.867 13.6394H143.58Z" fill="url(#paint7_linear_272_6668)"/>
<path d="M155.474 9.36892H158.153V19.9289C158.153 20.9251 157.927 21.7697 157.476 22.4629C157.031 23.1629 156.408 23.6913 155.608 24.048C154.807 24.4114 153.877 24.5931 152.816 24.5931C152.351 24.5931 151.859 24.5326 151.339 24.4114C150.826 24.2903 150.333 24.1018 149.861 23.8461C149.396 23.5903 149.006 23.2672 148.691 22.8769L149.994 21.1606C150.337 21.551 150.733 21.8539 151.185 22.0692C151.636 22.2913 152.136 22.4024 152.683 22.4024C153.217 22.4024 153.668 22.3048 154.038 22.1096C154.407 21.9211 154.691 21.6418 154.89 21.2717C155.088 20.9082 155.187 20.4674 155.187 19.9491V11.8928L155.474 9.36892ZM148.003 14.9619V14.7499C148.003 13.9153 148.106 13.1582 148.311 12.4784C148.523 11.7919 148.821 11.2029 149.204 10.7116C149.594 10.2203 150.066 9.84004 150.62 9.5708C151.175 9.3016 151.8 9.16699 152.498 9.16699C153.237 9.16699 153.856 9.3016 154.356 9.5708C154.855 9.84004 155.266 10.2237 155.587 10.7217C155.909 11.213 156.158 11.7952 156.337 12.4683C156.521 13.1346 156.665 13.8648 156.767 14.659V15.1234C156.665 15.8839 156.511 16.5907 156.306 17.2435C156.1 17.8963 155.83 18.4684 155.495 18.9598C155.16 19.4444 154.743 19.8213 154.243 20.0905C153.75 20.3597 153.162 20.4943 152.478 20.4943C151.794 20.4943 151.175 20.3563 150.62 20.0804C150.073 19.8044 149.604 19.4174 149.214 18.9194C148.824 18.4213 148.523 17.8358 148.311 17.1628C148.106 16.4897 148.003 15.7561 148.003 14.9619ZM150.959 14.7499V14.9619C150.959 15.4128 151.003 15.8335 151.093 16.2239C151.181 16.6142 151.318 16.9608 151.503 17.2637C151.695 17.5598 151.931 17.792 152.211 17.9603C152.498 18.1218 152.837 18.2026 153.227 18.2026C153.767 18.2026 154.209 18.0916 154.551 17.8694C154.893 17.6406 155.149 17.3276 155.321 16.9305C155.492 16.5334 155.591 16.0758 155.618 15.5575V14.235C155.604 13.811 155.546 13.4307 155.444 13.0942C155.341 12.751 155.197 12.4582 155.013 12.2159C154.828 11.9736 154.589 11.7851 154.294 11.6505C154 11.5159 153.651 11.4486 153.247 11.4486C152.857 11.4486 152.519 11.5361 152.232 11.7111C151.951 11.8793 151.715 12.1115 151.523 12.4077C151.339 12.7038 151.198 13.0538 151.102 13.4576C151.007 13.8547 150.959 14.2855 150.959 14.7499Z" fill="url(#paint8_linear_272_6668)"/>
<path d="M165.563 20.4943C164.701 20.4943 163.927 20.3597 163.243 20.0905C162.559 19.8145 161.977 19.4343 161.499 18.9497C161.026 18.4651 160.664 17.9031 160.411 17.2637C160.158 16.6176 160.031 15.9311 160.031 15.2042V14.8003C160.031 13.9725 160.151 13.2153 160.39 12.5288C160.63 11.8423 160.972 11.2467 161.416 10.7419C161.868 10.2371 162.415 9.85014 163.059 9.5809C163.702 9.30497 164.427 9.16699 165.234 9.16699C166.021 9.16699 166.719 9.29487 167.328 9.55061C167.937 9.80636 168.446 10.1698 168.857 10.6409C169.274 11.1121 169.589 11.6775 169.801 12.337C170.013 12.9899 170.119 13.7168 170.119 14.5177V15.7291H161.293V13.7908H167.215V13.5687C167.215 13.1649 167.14 12.8048 166.989 12.4885C166.845 12.1654 166.626 11.9096 166.332 11.7212C166.038 11.5327 165.662 11.4385 165.203 11.4385C164.813 11.4385 164.478 11.5226 164.198 11.6909C163.917 11.8591 163.688 12.0947 163.51 12.3976C163.339 12.7005 163.209 13.0572 163.12 13.4677C163.038 13.8715 162.997 14.3158 162.997 14.8003V15.2042C162.997 15.6417 163.059 16.0455 163.182 16.4156C163.312 16.7858 163.493 17.1055 163.725 17.3747C163.965 17.644 164.252 17.8526 164.588 18.0007C164.93 18.1487 165.316 18.2228 165.747 18.2228C166.281 18.2228 166.777 18.1218 167.235 17.9199C167.701 17.7113 168.101 17.3983 168.436 16.981L169.873 18.5156C169.64 18.8453 169.322 19.1617 168.918 19.4645C168.521 19.7674 168.043 20.0164 167.482 20.2116C166.92 20.4001 166.281 20.4943 165.563 20.4943Z" fill="url(#paint9_linear_272_6668)"/>
<path d="M174.757 11.7515V20.2924H171.802V9.36892H174.583L174.757 11.7515ZM178.103 9.29823L178.051 11.9938C177.908 11.9736 177.733 11.9568 177.528 11.9433C177.33 11.9231 177.148 11.913 176.984 11.913C176.567 11.913 176.204 11.9669 175.896 12.0745C175.595 12.1755 175.342 12.3269 175.137 12.5288C174.938 12.7308 174.788 12.9764 174.685 13.2658C174.589 13.5552 174.535 13.885 174.521 14.2552L173.926 14.0735C173.926 13.3668 173.998 12.7173 174.141 12.125C174.285 11.526 174.494 11.0044 174.768 10.5602C175.048 10.116 175.39 9.77272 175.794 9.53042C176.197 9.28814 176.659 9.16699 177.179 9.16699C177.343 9.16699 177.511 9.18045 177.682 9.20737C177.853 9.22756 177.993 9.25785 178.103 9.29823Z" fill="url(#paint10_linear_272_6668)"/>
<path d="M208.049 5.87207H191.156C189.195 5.87207 187.605 7.41493 187.605 9.31815V17.1417C187.605 19.0449 189.195 20.5878 191.156 20.5878H208.049C210.011 20.5878 211.601 19.0449 211.601 17.1417V9.31815C211.601 7.41493 210.011 5.87207 208.049 5.87207Z" stroke="url(#paint11_linear_272_6668)" stroke-width="1.5"/>
<path d="M195.986 13.2986V13.6668C195.986 14.1044 195.93 14.4966 195.817 14.8434C195.704 15.1903 195.542 15.4851 195.33 15.7279C195.119 15.9706 194.864 16.1561 194.568 16.2841C194.273 16.4122 193.943 16.4762 193.578 16.4762C193.223 16.4762 192.897 16.4122 192.6 16.2841C192.306 16.1561 192.05 15.9706 191.833 15.7279C191.619 15.4851 191.452 15.1903 191.334 14.8434C191.216 14.4966 191.157 14.1044 191.157 13.6668V13.2986C191.157 12.8611 191.214 12.4702 191.33 12.1261C191.448 11.7792 191.614 11.4844 191.829 11.2417C192.044 10.9962 192.298 10.8094 192.592 10.6814C192.889 10.5533 193.215 10.4893 193.569 10.4893C193.935 10.4893 194.265 10.5533 194.559 10.6814C194.856 10.8094 195.11 10.9962 195.322 11.2417C195.537 11.4844 195.7 11.7792 195.813 12.1261C195.929 12.4702 195.986 12.8611 195.986 13.2986ZM195.198 13.6668V13.2907C195.198 12.9438 195.161 12.637 195.087 12.3702C195.016 12.1034 194.91 11.8793 194.77 11.6979C194.629 11.5165 194.457 11.3791 194.254 11.2857C194.053 11.1923 193.825 11.1456 193.569 11.1456C193.322 11.1456 193.098 11.1923 192.897 11.2857C192.699 11.3791 192.529 11.5165 192.386 11.6979C192.246 11.8793 192.137 12.1034 192.06 12.3702C191.983 12.637 191.945 12.9438 191.945 13.2907V13.6668C191.945 14.0164 191.983 14.3258 192.06 14.5953C192.137 14.8621 192.247 15.0876 192.39 15.2716C192.535 15.4531 192.707 15.5905 192.906 15.6839C193.106 15.7772 193.33 15.8239 193.578 15.8239C193.836 15.8239 194.066 15.7772 194.267 15.6839C194.467 15.5905 194.636 15.4531 194.774 15.2716C194.914 15.0876 195.02 14.8621 195.091 14.5953C195.163 14.3258 195.198 14.0164 195.198 13.6668Z" fill="#F7F9FC"/>
<path d="M201.223 14.9235C201.223 14.7874 201.201 14.6674 201.157 14.5633C201.116 14.4566 201.042 14.3605 200.935 14.2751C200.83 14.1898 200.684 14.1084 200.497 14.031C200.313 13.9537 200.079 13.8749 199.796 13.7949C199.499 13.7095 199.231 13.6148 198.992 13.5108C198.753 13.404 198.548 13.2827 198.377 13.1466C198.207 13.0105 198.076 12.8545 197.986 12.6784C197.895 12.5023 197.849 12.3009 197.849 12.074C197.849 11.8473 197.898 11.6378 197.994 11.4457C198.09 11.2537 198.228 11.0869 198.406 10.9455C198.588 10.8014 198.803 10.6894 199.054 10.6093C199.304 10.5293 199.583 10.4893 199.891 10.4893C200.342 10.4893 200.724 10.5733 201.037 10.7414C201.354 10.9068 201.594 11.1243 201.759 11.3937C201.924 11.6605 202.007 11.946 202.007 12.2501H201.215C201.215 12.0314 201.167 11.8379 201.07 11.6699C200.974 11.4991 200.829 11.3657 200.633 11.2697C200.438 11.1709 200.191 11.1216 199.891 11.1216C199.608 11.1216 199.374 11.1629 199.19 11.2456C199.006 11.3283 198.868 11.4404 198.777 11.5818C198.689 11.7232 198.646 11.8846 198.646 12.0661C198.646 12.1888 198.672 12.3009 198.724 12.4022C198.779 12.5009 198.863 12.593 198.975 12.6784C199.091 12.7637 199.236 12.8424 199.413 12.9145C199.591 12.9865 199.804 13.0559 200.052 13.1226C200.393 13.2159 200.687 13.32 200.935 13.4347C201.182 13.5494 201.385 13.6789 201.545 13.8229C201.707 13.9643 201.826 14.1257 201.904 14.3072C201.983 14.4859 202.023 14.6887 202.023 14.9155C202.023 15.1529 201.974 15.3677 201.875 15.5598C201.776 15.7519 201.634 15.916 201.45 16.052C201.266 16.1881 201.044 16.2935 200.786 16.3682C200.53 16.4402 200.244 16.4762 199.928 16.4762C199.65 16.4762 199.377 16.4389 199.107 16.3642C198.841 16.2895 198.597 16.1774 198.377 16.028C198.16 15.8786 197.986 15.6945 197.854 15.4758C197.725 15.2543 197.66 14.9982 197.66 14.7074H198.452C198.452 14.9075 198.492 15.0795 198.571 15.2236C198.651 15.365 198.76 15.4824 198.897 15.5758C199.037 15.6692 199.195 15.7385 199.371 15.7839C199.55 15.8266 199.736 15.8479 199.928 15.8479C200.206 15.8479 200.441 15.8106 200.633 15.7359C200.826 15.6612 200.971 15.5545 201.07 15.4157C201.172 15.277 201.223 15.1129 201.223 14.9235Z" fill="#F7F9FC"/>
<path d="M207.221 14.9235C207.221 14.7874 207.199 14.6674 207.155 14.5633C207.113 14.4566 207.039 14.3605 206.932 14.2751C206.828 14.1898 206.682 14.1084 206.495 14.031C206.311 13.9537 206.077 13.8749 205.794 13.7949C205.497 13.7095 205.229 13.6148 204.99 13.5108C204.75 13.404 204.546 13.2827 204.375 13.1466C204.205 13.0105 204.074 12.8545 203.983 12.6784C203.893 12.5023 203.847 12.3009 203.847 12.074C203.847 11.8473 203.895 11.6378 203.992 11.4457C204.088 11.2537 204.225 11.0869 204.404 10.9455C204.586 10.8014 204.801 10.6894 205.051 10.6093C205.302 10.5293 205.581 10.4893 205.889 10.4893C206.34 10.4893 206.722 10.5733 207.035 10.7414C207.351 10.9068 207.592 11.1243 207.757 11.3937C207.922 11.6605 208.005 11.946 208.005 12.2501H207.213C207.213 12.0314 207.165 11.8379 207.068 11.6699C206.972 11.4991 206.826 11.3657 206.631 11.2697C206.436 11.1709 206.189 11.1216 205.889 11.1216C205.605 11.1216 205.372 11.1629 205.188 11.2456C205.003 11.3283 204.866 11.4404 204.775 11.5818C204.687 11.7232 204.643 11.8846 204.643 12.0661C204.643 12.1888 204.669 12.3009 204.722 12.4022C204.776 12.5009 204.861 12.593 204.973 12.6784C205.089 12.7637 205.235 12.8424 205.41 12.9145C205.589 12.9865 205.802 13.0559 206.05 13.1226C206.391 13.2159 206.685 13.32 206.932 13.4347C207.179 13.5494 207.383 13.6789 207.543 13.8229C207.705 13.9643 207.824 14.1257 207.901 14.3072C207.981 14.4859 208.021 14.6887 208.021 14.9155C208.021 15.1529 207.972 15.3677 207.872 15.5598C207.773 15.7519 207.632 15.916 207.448 16.052C207.264 16.1881 207.042 16.2935 206.784 16.3682C206.528 16.4402 206.242 16.4762 205.926 16.4762C205.648 16.4762 205.375 16.4389 205.105 16.3642C204.838 16.2895 204.595 16.1774 204.375 16.028C204.158 15.8786 203.983 15.6945 203.851 15.4758C203.722 15.2543 203.658 14.9982 203.658 14.7074H204.449C204.449 14.9075 204.489 15.0795 204.569 15.2236C204.649 15.365 204.757 15.4824 204.895 15.5758C205.035 15.6692 205.193 15.7385 205.369 15.7839C205.548 15.8266 205.733 15.8479 205.926 15.8479C206.204 15.8479 206.439 15.8106 206.631 15.7359C206.824 15.6612 206.969 15.5545 207.068 15.4157C207.17 15.277 207.221 15.1129 207.221 14.9235Z" fill="#F7F9FC"/>
<path fill-rule="evenodd" clip-rule="evenodd" d="M81.0999 17.3127H85.1562V11.2095H81.0999V17.3127ZM85.1339 8.81172H88.2491V20.1464C88.2491 22.0209 88.0471 22.3479 87.5319 22.8492C87.1284 23.2634 86.4788 23.4596 85.3581 23.4596H80.8089L79.3972 21.9337V21.3016H85.1339V19.754H81.2124C80.0246 19.754 79.4195 19.536 78.9265 19.0565C78.2767 18.4026 78.0078 16.9857 78.0078 14.3046C78.0078 11.6236 78.3215 10.1414 78.9937 9.46564C79.5093 8.9861 80.1367 8.78992 81.2574 8.78992L83.5878 8.81172L85.1339 10.185V8.81172ZM48.3819 5.80371H52.0571L46.7684 12.3429L52.2812 19.7322H48.3819L44.1913 13.9341H43.2053V19.7322H39.8887V5.80371H43.2053V11.2095H44.1913L48.3819 5.80371ZM72.5842 12.2557V11.253H71.4637C71.4413 11.253 71.4413 11.253 71.4189 11.253H70.5449C70.5225 11.253 70.5225 11.253 70.5001 11.253H68.7745V12.2557V19.6886H65.682V8.81172H67.7213H68.7745V9.0079V10.185L70.3208 8.81172H71.2172C71.3517 8.78992 71.5085 8.78992 71.6654 8.78992H73.01C73.9512 8.78992 74.5562 8.9861 74.982 9.40026C75.4526 9.83618 75.6319 10.4029 75.6319 12.0159V19.6886H72.5393V12.3865C72.5842 12.3429 72.5842 12.2993 72.5842 12.2557ZM56.2923 17.2905H60.3484V11.1872H56.2923V17.2905ZM56.4269 19.6886C55.3064 19.6886 54.7014 19.5142 54.2307 19.0129C53.5136 18.2936 53.2223 17.3127 53.2223 14.2393C53.2223 11.144 53.5136 10.185 54.2307 9.44385C54.7014 8.9643 55.3064 8.78992 56.4269 8.78992H60.1917C61.3122 8.78992 61.9173 8.9643 62.3879 9.44385C63.105 10.185 63.3963 11.144 63.3963 14.2393C63.3963 17.3345 63.105 18.2936 62.3879 19.0129C61.8948 19.5142 61.3122 19.6886 60.1917 19.6886H56.4269Z" fill="#F7F9FC"/>
</g>
<defs>
<linearGradient id="paint0_linear_272_6668" x1="-0.0309504" y1="24.3812" x2="21.4089" y2="2.96482" gradientUnits="userSpaceOnUse">
<stop stop-color="#1155CB"/>
<stop offset="1" stop-color="#1DB57C"/>
</linearGradient>
<linearGradient id="paint1_linear_272_6668" x1="-0.257053" y1="24.3811" x2="20.9743" y2="2.76179" gradientUnits="userSpaceOnUse">
<stop stop-color="#1155CB"/>
<stop offset="1" stop-color="#1DB57C"/>
</linearGradient>
<linearGradient id="paint2_linear_272_6668" x1="-0.0728269" y1="24.7728" x2="21.4368" y2="3.0531" gradientUnits="userSpaceOnUse">
<stop stop-color="#1155CB"/>
<stop offset="1" stop-color="#1DB57C"/>
</linearGradient>
<linearGradient id="paint3_linear_272_6668" x1="0.0221322" y1="24.3811" x2="21.4124" y2="3.65419" gradientUnits="userSpaceOnUse">
<stop stop-color="#1155CB"/>
<stop offset="1" stop-color="#1DB57C"/>
</linearGradient>
<linearGradient id="paint4_linear_272_6668" x1="156.238" y1="11.875" x2="149.566" y2="38.1887" gradientUnits="userSpaceOnUse">
<stop stop-color="#11A06B"/>
<stop offset="1" stop-color="#286FEB"/>
</linearGradient>
<linearGradient id="paint5_linear_272_6668" x1="156.237" y1="11.8754" x2="149.566" y2="38.1891" gradientUnits="userSpaceOnUse">
<stop stop-color="#11A06B"/>
<stop offset="1" stop-color="#286FEB"/>
</linearGradient>
<linearGradient id="paint6_linear_272_6668" x1="156.237" y1="11.8754" x2="149.566" y2="38.1891" gradientUnits="userSpaceOnUse">
<stop stop-color="#11A06B"/>
<stop offset="1" stop-color="#286FEB"/>
</linearGradient>
<linearGradient id="paint7_linear_272_6668" x1="156.237" y1="11.8754" x2="149.566" y2="38.1891" gradientUnits="userSpaceOnUse">
<stop stop-color="#11A06B"/>
<stop offset="1" stop-color="#286FEB"/>
</linearGradient>
<linearGradient id="paint8_linear_272_6668" x1="156.238" y1="11.8754" x2="149.566" y2="38.1891" gradientUnits="userSpaceOnUse">
<stop stop-color="#11A06B"/>
<stop offset="1" stop-color="#286FEB"/>
</linearGradient>
<linearGradient id="paint9_linear_272_6668" x1="156.238" y1="11.8754" x2="149.566" y2="38.1891" gradientUnits="userSpaceOnUse">
<stop stop-color="#11A06B"/>
<stop offset="1" stop-color="#286FEB"/>
</linearGradient>
<linearGradient id="paint10_linear_272_6668" x1="156.237" y1="11.8754" x2="149.566" y2="38.1891" gradientUnits="userSpaceOnUse">
<stop stop-color="#11A06B"/>
<stop offset="1" stop-color="#286FEB"/>
</linearGradient>
<linearGradient id="paint11_linear_272_6668" x1="211.888" y1="6.89658" x2="188.964" y2="23.1849" gradientUnits="userSpaceOnUse">
<stop stop-color="#F1F1F1"/>
<stop offset="0.333333" stop-color="#11A06B"/>
<stop offset="0.666667" stop-color="#286FEB"/>
<stop offset="1" stop-color="#F1F1F1"/>
</linearGradient>
<clipPath id="clip0_272_6668">
<rect width="173" height="20" fill="white" transform="translate(39.4443 4.39551)"/>
</clipPath>
</defs>
</svg>
